<svg width="29" height="31" viewBox="0 0 29 31" fill="none" xmlns="http://www.w3.org/2000/svg">
<path d="M3.32013 25.5191C2.49981 25.5191 1.74625 25.0899 1.32655 24.384C0.906849 23.6829 0.892541 22.8101 1.27886 22.09L3.79229 19.753V12.2175C3.79229 6.24149 8.67609 1 14.2371 1C19.7982 1 24.682 6.24149 24.682 12.2175V19.753L27.1954 22.09C27.5865 22.8101 27.5674 23.6782 27.1477 24.384C26.728 25.0851 25.9697 25.5191 25.1541 25.5191H3.32013Z" stroke="#333333" stroke-width="2" stroke-linecap="round" stroke-linejoin="round"/>
<path d="M10.994 26.0627C10.994 27.856 12.4487 29.3107 14.2419 29.3107C16.0352 29.3107 17.4898 27.856 17.4898 26.0627" stroke="#333333" stroke-width="2" stroke-linecap="round" stroke-linejoin="round"/>
<path d="M3.7923 19.7529H17.7664" stroke="#333333" stroke-width="2" stroke-linecap="round" stroke-linejoin="round"/>
</svg>
