<svg width="22" height="25" viewBox="0 0 22 25" fill="none" xmlns="http://www.w3.org/2000/svg">
<path d="M9.30718 17.6144C4.7253 17.6144 1 13.8857 1 9.30718C1 4.72866 4.7253 1 9.30718 1C13.8891 1 17.6144 4.7253 17.6144 9.30718C17.6144 13.8891 13.8891 17.6144 9.30718 17.6144ZM9.30718 1.67183C5.09816 1.67183 1.67183 5.0948 1.67183 9.30718C1.67183 13.5196 5.09816 16.9425 9.30718 16.9425C13.5162 16.9425 16.9425 13.5162 16.9425 9.30718C16.9425 5.09816 13.5162 1.67183 9.30718 1.67183Z" fill="#333333" stroke="#333333" stroke-width="1.5"/>
<path d="M14.3533 15.4881L13.8214 15.8984L15.5429 18.1299L16.0749 17.7195L14.3533 15.4881Z" fill="#333333" stroke="#333333" stroke-width="1.5"/>
<path d="M19.0051 24C18.4139 24 17.8529 23.7178 17.5036 23.2442L15.2697 20.231C14.655 19.4047 14.8297 18.229 15.6594 17.6176C15.9852 17.3791 16.3682 17.2515 16.7713 17.2515C17.3625 17.2515 17.9235 17.5336 18.2728 18.0073L20.5066 21.0204C20.8022 21.4235 20.9265 21.914 20.8526 22.4078C20.7787 22.9016 20.5167 23.3382 20.117 23.6338C19.7945 23.8723 19.4082 24 19.0051 24ZM16.7679 17.9199C16.5092 17.9199 16.264 18.0006 16.0558 18.1551C15.525 18.5481 15.4142 19.3005 15.8072 19.8313L18.041 22.8444C18.2694 23.1535 18.6188 23.3282 19.0051 23.3282C19.2638 23.3282 19.509 23.2475 19.7172 23.093C19.9759 22.9016 20.1405 22.6227 20.1875 22.307C20.2345 21.9912 20.1573 21.6755 19.9658 21.4168L17.732 18.4037C17.5036 18.0946 17.1508 17.9199 16.7679 17.9199Z" fill="#333333" stroke="#333333" stroke-width="1.5"/>
<path d="M10.0057 12.7468H8.72927C8.60834 12.7468 8.51428 12.8442 8.51428 12.9618V14.2181C8.51428 14.3391 8.6117 14.4331 8.72927 14.4331H10.0057C10.1233 14.4331 10.2207 14.3357 10.2207 14.2181V12.9618C10.2207 12.8442 10.1233 12.7468 10.0057 12.7468Z" fill="#333333"/>
<path d="M11.2521 4.99396C10.7919 4.57407 10.1469 4.34229 9.43478 4.34229C8.57148 4.34229 7.85934 4.61102 7.37226 5.12161C6.87175 5.64899 6.61646 6.4048 6.61646 7.36552C6.61646 7.48309 6.71387 7.58051 6.83144 7.58051H7.78544C7.90637 7.58051 8.00043 7.48309 8.00043 7.36552C8.00043 6.1999 8.46399 5.6322 9.42135 5.6322C10.1906 5.6322 10.6138 6.05209 10.6138 6.81462C10.6138 7.27482 10.3989 7.72495 9.95545 8.19523C9.04176 9.16602 8.70249 10.0864 8.70249 11.5913C8.70249 11.7089 8.7999 11.8063 8.91747 11.8063H9.81437C9.93194 11.8063 10.0294 11.7089 10.0294 11.5913C10.0294 10.5399 10.1503 9.9655 10.9027 9.15595C11.5611 8.44381 11.9978 7.77534 11.9978 6.81126C11.9978 6.06889 11.7392 5.43737 11.2487 4.9906L11.2521 4.99396Z" fill="#333333"/>
</svg>
