<svg width="122" height="59" viewBox="0 0 122 59" fill="none" xmlns="http://www.w3.org/2000/svg">
<path d="M80.4197 22.5485V23.6765H66.7504V22.5485H80.4197ZM79.1028 21.3538C76.7746 20.9815 74.5519 19.7702 73.5906 18.0476C72.646 19.7813 70.4066 20.9815 68.0617 21.3538L67.5561 20.2758C70.2511 19.8869 72.8849 18.2365 72.8849 16.2639V15.5916H74.3019V16.2639C74.3019 18.1865 76.9468 19.8869 79.6307 20.2758L79.1084 21.3538H79.1028ZM78.7472 27.7606C78.7472 29.4943 76.8079 30.4556 73.5906 30.4556C70.3733 30.4556 68.4007 29.4943 68.4007 27.7606C68.4007 26.027 70.3566 25.0823 73.5906 25.0823C76.8246 25.0823 78.7472 26.0436 78.7472 27.7606ZM77.3469 27.7606C77.3469 26.7327 75.9466 26.1436 73.5906 26.1436C71.2346 26.1436 69.7954 26.7327 69.7954 27.7606C69.7954 28.7886 71.1957 29.3776 73.5906 29.3776C75.9855 29.3776 77.3469 28.8053 77.3469 27.7606Z" fill="#246EA8" stroke="#246EA8"/>
<path d="M99.0401 22.8206V23.932H85.354V22.8206H88.7436V20.698C87.5489 20.209 86.8877 19.4533 86.8877 18.4198C86.8877 16.6472 88.927 15.6025 92.1998 15.6025C95.4727 15.6025 97.5064 16.6472 97.5064 18.4198C97.5064 19.4311 96.8341 20.209 95.6672 20.6758V22.8151H99.0401V22.8206ZM97.3731 27.7605C97.3731 29.4942 95.4505 30.4388 92.1998 30.4388C88.9492 30.4388 87.0266 29.4942 87.0266 27.7605C87.0266 26.0268 88.9659 25.0655 92.1998 25.0655C95.4338 25.0655 97.3731 26.0268 97.3731 27.7605ZM92.1998 20.159C94.6114 20.159 96.0951 19.5033 96.0951 18.4253C96.0951 17.3473 94.6114 16.6916 92.1998 16.6916C89.7882 16.6916 88.3046 17.3307 88.3046 18.4253C88.3046 19.52 89.7882 20.159 92.1998 20.159ZM95.9728 27.7605C95.9728 26.7325 94.5559 26.1435 92.1998 26.1435C89.8438 26.1435 88.4269 26.7325 88.4269 27.7605C88.4269 28.7885 89.8271 29.3775 92.1998 29.3775C94.5725 29.3775 95.9728 28.7885 95.9728 27.7605ZM90.105 22.8206H94.3003V21.0481C93.6779 21.1481 92.9667 21.2148 92.1943 21.2148C91.4219 21.2148 90.7273 21.1481 90.105 21.0481V22.8206Z" fill="#246EA8" stroke="#246EA8"/>
<path d="M109.048 20.2425C109.048 22.6707 110.548 25.149 112.721 26.1936L111.943 27.2716C110.292 26.4604 109.009 24.81 108.37 22.8708C107.731 24.9434 106.347 26.6993 104.63 27.5384L103.852 26.4937C106.058 25.4157 107.681 22.8541 107.681 20.2425V19.0645H104.258V17.9531H107.664V15.6082H109.048V17.9476H112.404V19.0589H109.048V20.2369V20.2425ZM118.116 22.7041H115.621V30.4556H114.238V15.3359H115.621V21.5538H118.116V22.6985V22.7041Z" fill="#246EA8" stroke="#246EA8"/>
<path d="M62.7218 37.0735H69.6509V46.831H62.7218V37.0735ZM64.0721 45.7197H68.3007V38.1849H64.0721V45.7197ZM76.2411 42.7524H73.7462V50.6762H72.3626V35.5732H73.7462V41.5911H76.2411V42.7524Z" fill="#246EA8" stroke="#246EA8"/>
<path d="M81.8645 42.8081C79.6085 42.8081 77.9693 41.4579 77.9693 39.4686C77.9693 37.4793 79.6029 36.0957 81.8645 36.0957C84.126 36.0957 85.7764 37.4626 85.7764 39.4686C85.7764 41.4745 84.126 42.8081 81.8645 42.8081ZM81.8645 41.6968C83.3481 41.6968 84.4261 40.7688 84.4261 39.4741C84.4261 38.1794 83.3481 37.2348 81.8645 37.2348C80.3809 37.2348 79.3029 38.1628 79.3029 39.4741C79.3029 40.7855 80.3975 41.6968 81.8645 41.6968ZM90.5273 49.3817V50.4763H80.2642V46.6811H88.6603V45.1475H80.2308V44.0528H90.0217V47.7091H81.6256V49.3761H90.5273V49.3817ZM90.0217 43.3138H88.6381V35.5623H90.0217V43.3138Z" fill="#246EA8" stroke="#246EA8"/>
<path d="M95.3838 45.8921C97.8621 45.8921 100.085 45.7754 102.735 45.3531L102.869 46.4811C100.14 46.9367 97.8454 47.0368 95.2505 47.0368H94.0058V41.2356H99.568V38.085H93.9558V36.957H100.968V42.3525H95.3894V45.8921H95.3838ZM105.53 35.54V50.693H104.147V35.54H105.53Z" fill="#246EA8" stroke="#246EA8"/>
<path d="M114.021 40.1798C114.021 42.7414 115.843 45.353 118.066 46.2977L117.288 47.409C115.538 46.5977 114.054 44.864 113.326 42.7914C112.637 44.9974 111.154 46.9033 109.431 47.7813L108.62 46.6699C110.792 45.642 112.632 42.7914 112.632 40.1798V38.2572H109.125V37.1125H117.572V38.2572H114.015V40.1798H114.021ZM121 35.5789V50.6819H119.616V35.5789H121Z" fill="#246EA8" stroke="#246EA8"/>
<path d="M16.7126 2.13165L26.3589 12.2781C26.3589 12.2781 27.7092 0.64247 16.7126 2.13165Z" stroke="#246EA8" stroke-width="3" stroke-linecap="round" stroke-linejoin="round"/>
<path d="M26.3034 12.3669L16.7015 2.17603C14.6122 13.0726 26.3034 12.3669 26.3034 12.3669Z" stroke="#246EA8" stroke-width="3" stroke-linecap="round" stroke-linejoin="round"/>
<path d="M38.428 2.3374L28.2815 11.9838C28.2815 11.9838 39.9172 13.334 38.428 2.3374Z" stroke="#246EA8" stroke-width="3" stroke-linecap="round" stroke-linejoin="round"/>
<path d="M28.1926 11.9281L38.378 2.3262C27.4814 0.236901 28.187 11.9281 28.187 11.9281H28.1926Z" stroke="#246EA8" stroke-width="3" stroke-linecap="round" stroke-linejoin="round"/>
<path d="M47.1853 32.0265L44.5347 21.7189C44.5347 21.7189 43.4957 16.5178 37.5334 16.5178H16.9959C11.0392 16.5178 9.99455 21.7189 9.99455 21.7189L7.34403 32.0265C7.34403 32.0265 1.39285 32.5932 1.604 37.772V47.4906C1.604 47.4906 2.24302 51.9582 7.77745 51.6026C7.77745 51.6026 6.99952 56.9925 11.3948 57.137C11.3948 57.137 17.2127 58.1316 18.2073 52.2416L18.4907 51.1803H36.0553L36.3387 52.2416C37.3333 58.1316 43.1511 57.137 43.1511 57.137C47.5465 56.9925 46.7685 51.6026 46.7685 51.6026C52.303 51.9582 52.942 47.4906 52.942 47.4906V37.772C53.1531 32.5932 47.1964 32.0265 47.1964 32.0265H47.1853Z" stroke="#246EA8" stroke-width="3" stroke-miterlimit="10"/>
<path d="M27.2702 18.8293V15.212C27.2702 15.212 27.3035 13.4283 26.3033 12.3669" stroke="#246EA8" stroke-width="3" stroke-miterlimit="10"/>
<path d="M28.1926 11.928C28.1926 11.928 27.2702 13.3005 27.2702 16.0677" stroke="#246EA8" stroke-width="3" stroke-miterlimit="10"/>
<path d="M15.4123 31.932C15.4123 31.932 14.94 22.2856 21.0857 22.2856C27.2313 22.2856 27.1869 31.932 27.1869 31.932" stroke="#246EA8" stroke-width="3" stroke-miterlimit="10"/>
<path d="M27.1925 31.932C27.1925 31.932 26.7201 22.2856 32.8658 22.2856C39.0115 22.2856 38.967 31.932 38.967 31.932" stroke="#246EA8" stroke-width="3" stroke-miterlimit="10"/>
<path d="M10.1613 38.1777H10.917L11.0003 38.9723H11.0281C11.5004 38.45 12.0783 38.0332 12.734 38.0332C13.5731 38.0332 14.0231 38.4388 14.2454 39.0834C14.8122 38.4666 15.3845 38.0332 16.0513 38.0332C17.1793 38.0332 17.7128 38.7778 17.7128 40.1781V43.6454H16.7959V40.3003C16.7959 39.2723 16.4736 38.8389 15.7791 38.8389C15.3567 38.8389 14.9122 39.1112 14.3954 39.678V43.651H13.4786V40.3059C13.4786 39.2779 13.1563 38.8445 12.4617 38.8445C12.0505 38.8445 11.5838 39.1168 11.0781 39.6835V43.6565H10.1613V38.1832V38.1777Z" fill="#246EA8" stroke="#246EA8"/>
<path d="M19.3464 36.4329C19.3464 36.0829 19.5964 35.8384 19.9632 35.8384C20.3299 35.8384 20.58 36.0829 20.58 36.4329C20.58 36.8052 20.3299 37.0497 19.9632 37.0497C19.5964 37.0497 19.3464 36.8052 19.3464 36.4329ZM19.4964 38.1777H20.4133V43.651H19.4964V38.1777Z" fill="#246EA8" stroke="#246EA8"/>
<path d="M22.2636 42.5675V35.6328H23.1805V42.6286C23.1805 42.912 23.3027 43.0232 23.4417 43.0232C23.4917 43.0232 23.5306 43.0232 23.6306 43.0009L23.7639 43.7066C23.6306 43.7566 23.4806 43.79 23.2305 43.79C22.547 43.79 22.2636 43.3455 22.2636 42.5675Z" fill="#246EA8" stroke="#246EA8"/>
<path d="M24.7252 40.9227C24.7252 39.1502 25.9255 38.0388 27.1924 38.0388C28.5815 38.0388 29.3706 39.0446 29.3706 40.6116C29.3706 40.8116 29.3484 41.0061 29.3317 41.1339H25.6421C25.7032 42.3008 26.42 43.0509 27.4591 43.0509C27.9925 43.0509 28.426 42.8898 28.8316 42.6175L29.165 43.2232C28.6816 43.5344 28.0981 43.79 27.348 43.79C25.8977 43.79 24.7252 42.7342 24.7252 40.9283V40.9227ZM28.5649 40.4671C28.5649 39.3669 28.0592 38.7723 27.2035 38.7723C26.4256 38.7723 25.7421 39.3946 25.631 40.4671H28.5649Z" fill="#246EA8" stroke="#246EA8"/>
<path d="M30.2153 42.2341C30.2153 41.045 31.2544 40.4504 33.5826 40.1892C33.5826 39.4836 33.3492 38.8056 32.4546 38.8056C31.8211 38.8056 31.2432 39.1001 30.8098 39.3891L30.4486 38.7556C30.9543 38.4333 31.7267 38.0388 32.6046 38.0388C33.9327 38.0388 34.4994 38.9334 34.4994 40.2893V43.6566H33.7437L33.6659 43.0009H33.6382C33.1158 43.4343 32.499 43.79 31.8211 43.79C30.9043 43.79 30.2208 43.2232 30.2208 42.2397L30.2153 42.2341ZM33.5826 42.323V40.7894C31.7378 41.0116 31.1099 41.4673 31.1099 42.173C31.1099 42.7953 31.5322 43.0509 32.0767 43.0509C32.6213 43.0509 33.0436 42.8009 33.577 42.323H33.5826Z" fill="#246EA8" stroke="#246EA8"/>
<path d="M35.833 44.7013C35.833 44.2401 36.1275 43.7956 36.6387 43.4622V43.4233C36.3442 43.251 36.1331 42.9621 36.1331 42.5287C36.1331 42.0952 36.4665 41.7118 36.7499 41.5118V41.4729C36.3887 41.1784 36.033 40.6561 36.033 40.0004C36.033 38.8001 36.9832 38.0444 38.089 38.0444C38.3891 38.0444 38.6613 38.1167 38.8558 38.1834H40.7618V38.889H39.6449C39.906 39.1391 40.0894 39.5447 40.0894 40.017C40.0894 41.1839 39.2003 41.923 38.0946 41.923C37.8223 41.923 37.5222 41.8507 37.2777 41.7341C37.0777 41.9063 36.9277 42.0897 36.9277 42.3897C36.9277 42.7454 37.1499 42.9843 37.8834 42.9843H38.9503C40.2228 42.9843 40.8673 43.3899 40.8673 44.2846C40.8673 45.3014 39.7893 46.1794 38.0946 46.1794C36.7554 46.1794 35.8386 45.6571 35.8386 44.7069L35.833 44.7013ZM39.9672 44.4179C39.9672 43.9123 39.5726 43.74 38.8503 43.74H37.9001C37.7 43.74 37.4389 43.7122 37.1944 43.6511C36.7999 43.9345 36.6387 44.2568 36.6387 44.5791C36.6387 45.1625 37.2333 45.5459 38.2224 45.5459C39.2726 45.5459 39.9672 44.9903 39.9672 44.4179ZM39.2615 39.9948C39.2615 39.2002 38.7391 38.7168 38.0946 38.7168C37.45 38.7168 36.9277 39.1891 36.9277 39.9948C36.9277 40.8005 37.4611 41.2951 38.0946 41.2951C38.728 41.2951 39.2615 40.7894 39.2615 39.9948Z" fill="#246EA8" stroke="#246EA8"/>
<path d="M41.3508 40.9227C41.3508 39.1502 42.551 38.0388 43.8235 38.0388C45.2126 38.0388 46.0017 39.0446 46.0017 40.6116C46.0017 40.8116 45.9795 41.0061 45.9628 41.1339H42.2732C42.3343 42.3008 43.0511 43.0509 44.0902 43.0509C44.6236 43.0509 45.0571 42.8898 45.4627 42.6175L45.7961 43.2232C45.3127 43.5344 44.7292 43.79 43.9791 43.79C42.5288 43.79 41.3563 42.7342 41.3563 40.9283L41.3508 40.9227ZM45.1904 40.4671C45.1904 39.3669 44.6848 38.7723 43.829 38.7723C43.0511 38.7723 42.3676 39.3946 42.2565 40.4671H45.1904Z" fill="#246EA8" stroke="#246EA8"/>
</svg>
